<?xml version="1.0" encoding="UTF-8" standalone="no"?>
<!-- Generator: Adobe Illustrator 19.2.0, SVG Export Plug-In . SVG Version: 6.00 Build 0)  -->

<svg
   xmlns:dc="http://purl.org/dc/elements/1.1/"
   xmlns:cc="http://creativecommons.org/ns#"
   xmlns:rdf="http://www.w3.org/1999/02/22-rdf-syntax-ns#"
   xmlns:svg="http://www.w3.org/2000/svg"
   xmlns="http://www.w3.org/2000/svg"
   xmlns:sodipodi="http://sodipodi.sourceforge.net/DTD/sodipodi-0.dtd"
   xmlns:inkscape="http://www.inkscape.org/namespaces/inkscape"
   version="1.1"
   id="microscopebacteria"
   x="0px"
   y="0px"
   viewBox="0 0 256 256"
   enable-background="new 0 0 220.0844 215.4977"
   xml:space="preserve"
   inkscape:version="0.91 r13725"
   sodipodi:docname="icon.svg"
   width="256"
   height="256"><metadata
     id="metadata4286"><rdf:RDF><cc:Work
         rdf:about=""><dc:format>image/svg+xml</dc:format><dc:type
           rdf:resource="http://purl.org/dc/dcmitype/StillImage" /><dc:title></dc:title></cc:Work></rdf:RDF></metadata><defs
     id="defs4284" /><sodipodi:namedview
     pagecolor="#ffffff"
     bordercolor="#666666"
     borderopacity="1"
     objecttolerance="10"
     gridtolerance="10"
     guidetolerance="10"
     inkscape:pageopacity="0"
     inkscape:pageshadow="2"
     inkscape:window-width="1855"
     inkscape:window-height="1056"
     id="namedview4282"
     showgrid="false"
     fit-margin-top="0"
     fit-margin-left="0"
     fit-margin-right="0"
     fit-margin-bottom="0"
     inkscape:zoom="1.5487609"
     inkscape:cx="17.924659"
     inkscape:cy="141.80434"
     inkscape:window-x="65"
     inkscape:window-y="24"
     inkscape:window-maximized="1"
     inkscape:current-layer="microscopebacteria" /><g
     inkscape:groupmode="layer"
     id="layer2"
     inkscape:label="bg"
     transform="translate(0,40.502304)"
     style="display:inline" /><g
     id="g5041"
     transform="translate(16.325737,-16.325737)"><circle
       r="106.67426"
       cy="103.82343"
       cx="111.67426"
       id="path4832"
       style="display:inline;opacity:0.42300002;fill:#ffffff;fill-opacity:1;fill-rule:nonzero;stroke:#000000;stroke-width:10;stroke-linejoin:round;stroke-miterlimit:4;stroke-dasharray:none;stroke-opacity:1"
       transform="translate(0,40.502304)" /><path
       id="path4975"
       d="m 17.293983,169.18172 36.76378,-0.001 7.35798,18.18706 c 0.35242,0.87491 0.98461,1.58016 1.76414,2.03022 0.68827,0.39737 1.49556,0.59765 2.32684,0.54645 1.77724,-0.11588 3.28347,-1.35268 3.73552,-3.07212 l 8.152965,-30.935 6.46712,15.73428 c 0.64501,1.54682 2.14846,2.55896 3.82413,2.56195 l 16.976662,-4.8e-4 c 0.85599,4.39256 2.9898,8.43661 6.23022,11.6748 1.43435,1.43849 3.03212,2.65922 4.74472,3.64799 3.41124,1.96948 7.29156,3.02152 11.33664,3.02195 l 57.83612,-0.004 c 6.06632,0.002 11.77394,-2.36004 16.07094,-6.65512 4.30299,-4.29639 6.67252,-10.00734 6.67153,-16.07568 -0.002,-12.53267 -10.21525,-22.73053 -22.74222,-22.73032 l -57.83425,4.7e-4 c -6.06818,7.1e-4 -11.7758,2.36327 -16.07073,6.65476 -3.36942,3.36462 -5.5026,7.60572 -6.29187,12.19801 l -14.158562,2.1e-4 -10.09276,-24.55674 c -0.67692,-1.64446 -2.3273,-2.67651 -4.09959,-2.55349 -1.77009,0.12002 -3.27103,1.35509 -3.72122,3.07132 l -8.124175,30.82087 -3.74303,-9.24957 c -0.62587,-1.56345 -2.14629,-2.58586 -3.83004,-2.58397 l -19.77497,-6e-5 -19.77496,-6e-5 c -0.28547,6e-5 -0.56416,0.029 -0.83332,0.0841 -0.26915,0.0551 -0.52876,0.13626 -0.77606,0.24081 -0.2473,0.10455 -0.4823,0.23246 -0.70222,0.38097 -0.21992,0.14852 -0.42476,0.31763 -0.61176,0.50458 -0.18701,0.18696 -0.35617,0.39175 -0.50472,0.61162 -0.14855,0.21987 -0.27649,0.45482 -0.38106,0.70208 -0.10457,0.24727 -0.18576,0.50686 -0.24081,0.776 -0.0551,0.26914 -0.084,0.54784 -0.084,0.83333 -1.3e-4,0.28587 0.0288,0.56478 0.084,0.83403 0.0551,0.26925 0.13653,0.52882 0.24134,0.77601 0.1048,0.24719 0.23302,0.48199 0.38184,0.70168 0.14882,0.21969 0.31825,0.42427 0.50546,0.61102 0.18722,0.18674 0.39222,0.35566 0.6122,0.50403 0.21998,0.14836 0.45494,0.27618 0.70205,0.38072 0.24712,0.10455 0.5064,0.18582 0.77503,0.2411 0.26862,0.0553 0.54659,0.0846 0.8311,0.0851 l 0,10e-6 0,1e-5 0,1e-5 0,1e-5 0,1e-5 0,1e-5 0,1e-5 z m 99.451807,-9.56255 c 2.7355,-2.7361 6.37165,-4.23925 10.2303,-4.23909 l 57.83427,-4.8e-4 c 2.6293,-0.001 5.09307,0.70379 7.21798,1.93061 4.33429,2.5024 7.25755,7.1818 7.25803,12.53212 0.003,3.86072 -1.50765,7.49463 -4.24637,10.22887 -2.73364,2.73288 -6.3695,4.23572 -10.22825,4.23551 l -57.83633,0.004 c -3.86973,0.002 -7.5053,-1.51394 -10.23787,-4.24728 -2.73253,-2.73344 -4.23981,-6.36244 -4.23607,-10.21903 -0.003,-3.86071 1.50564,-7.49114 4.24431,-10.22529 z"
       inkscape:connector-curvature="0"
       sodipodi:nodetypes="cccscccccccscccssccccccccccccssssssscsssssssccccccccccccscccccccc" /><path
       id="path4977"
       d="m 98.328153,67.09575 -11.006737,-7.638591 2.50092,-0.08871 c 1.170779,-0.04085 2.199647,-0.788653 2.59973,-1.890702 l 3.328032,-9.143971 c 0.54223,-1.491457 -0.22503,-3.142073 -1.71934,-3.684772 -1.465401,-0.552815 -3.139968,0.22828 -3.684699,1.719065 l -2.665283,7.321616 -9.204023,0.324713 c -1.235559,0.04374 -2.307557,0.875841 -2.657079,2.061398 -0.347767,1.189004 0.102773,2.469559 1.120233,3.175338 l 11.075264,7.686129 -6.023806,0.249519 c -1.166246,0.04504 -2.18624,0.791947 -2.584632,1.888794 l -2.683083,7.36805 c -5.351535,-0.509288 -10.646594,2.565367 -12.571375,7.854447 l -9.862762,27.097967 c -2.285193,6.27195 0.970767,13.23797 7.259116,15.52756 0.336446,0.12204 0.67649,0.23065 1.018408,0.32226 6.002597,1.60839 12.358321,-1.6164 14.519399,-7.55514 L 86.948521,92.595282 C 88.907534,87.211775 86.770077,81.338821 82.156942,78.329047 l 1.993707,-5.476321 12.655679,-0.521871 c 1.234275,-0.05004 2.300715,-0.883629 2.644215,-2.067822 0.34425,-1.186969 -0.10771,-2.462249 -1.12239,-3.167283 z m -16.78347,23.534178 -9.86237,27.095392 c -1.199663,3.29507 -4.851848,5.02306 -8.168257,3.79417 -3.305363,-1.20541 -5.020146,-4.86276 -3.820429,-8.15803 L 69.55639,86.263497 c 1.134115,-3.114885 4.477197,-4.806704 7.634455,-3.960719 0.179153,0.048 0.358579,0.104984 0.536186,0.169873 3.302308,1.204579 5.017294,4.862283 3.817651,8.157282 z"
       inkscape:connector-curvature="0" /><path
       id="path4979"
       d="m 196.91863,118.88097 -7.68725,-4.8071 1.73476,-10.36343 c 0.28837,-1.73066 -0.55706,-3.45722 -2.09944,-4.290343 -1.55016,-0.829025 -3.4531,-0.584953 -4.73869,0.609153 l -10.41963,9.67798 0.86144,-5.34375 c 0.26417,-1.63056 -0.47667,-3.25672 -1.87465,-4.12995 l -7.68766,-4.804323 c 0.66751,-2.389036 0.80196,-4.904007 0.23269,-7.389853 -0.89763,-3.925667 -3.26903,-7.258587 -6.67404,-9.381811 L 128.43358,59.829928 c -3.40511,-2.131428 -7.43907,-2.816471 -11.36064,-1.891048 -3.90966,0.909426 -7.23888,3.284927 -9.3658,6.694145 -4.40274,7.041999 -2.27131,16.34382 4.75879,20.742351 l 30.13656,18.831824 c 2.4638,1.53827 5.21167,2.2713 7.92774,2.2713 3.75,0 7.43939,-1.40208 10.25832,-4.01263 l 5.24858,3.2796 -2.32751,14.43349 c -0.28017,1.73025 0.57306,3.44491 2.11503,4.27024 1.54237,0.82123 3.44531,0.57665 4.7272,-0.61295 l 10.33513,-9.5983 -0.20018,1.18591 c -0.27237,1.63426 0.46476,3.27662 1.87053,4.15415 l 10.01107,6.25727 c 0.67684,0.42457 1.42998,0.62475 2.17122,0.62475 1.36599,0 2.70407,-0.68094 3.48111,-1.92674 1.2019,-1.92304 0.61684,-4.45452 -1.3021,-5.65232 z M 146.94914,97.24888 116.81657,78.421265 c -3.19253,-1.998932 -4.15826,-6.233484 -2.15112,-9.442112 0.96932,-1.554372 2.48339,-2.635981 4.26613,-3.052339 0.51686,-0.12019 1.04151,-0.176389 1.55838,-0.176389 1.26179,0 2.49978,0.348675 3.5934,1.033718 l 30.13615,18.831717 c 1.54238,0.961419 2.61588,2.471488 3.02486,4.254241 0.40857,1.786446 0.10009,3.625398 -0.86964,5.175564 -2.01082,3.212731 -6.23307,4.194352 -9.42559,2.203215 z"
       inkscape:connector-curvature="0" /></g></svg>